<?xml version="1.0" encoding="utf-8"?>
<!-- Generator: Adobe Illustrator 25.4.1, SVG Export Plug-In . SVG Version: 6.00 Build 0)  -->
<svg version="1.1" id="Layer_1" xmlns="http://www.w3.org/2000/svg" xmlns:xlink="http://www.w3.org/1999/xlink" x="0px" y="0px"
	 viewBox="0 0 300 330" style="enable-background:new 0 0 300 330;" xml:space="preserve">
<style type="text/css">
	.st0{fill-rule:evenodd;clip-rule:evenodd;fill:#0973D6;}
	.st1{fill-rule:evenodd;clip-rule:evenodd;fill:#FFCB05;}
	.st2{fill-rule:evenodd;clip-rule:evenodd;fill:#FEFEFE;}
	.st3{fill:#2918A9;}
</style>
<g>
	<path class="st0" d="M264,115.3c1.1,15,6.9,33.1,19.1,53.9c12.8,22,19,45.2,16.4,69.8c-3.3,30.8-33.2,53.6-90.3,64.2
		c-29.2,5.4-49,12.9-58.7,26.8c-12-17-50.6-25.1-59.4-26.8c-57.1-10.4-87-33.4-90.3-64.2c-2.7-24.7,3.5-47.8,16.4-69.8
		c12.1-20.8,18-38.9,19.1-53.9L264,115.3L264,115.3z"/>
	<path class="st1" d="M263.6,105.2c4.6-21.1,13.7-39.9,27.3-56.3c-22.5-16-37.3-32.3-44.5-48.9c-32,44.7-161.1,44.7-192.9,0
		C46.3,16.6,31.5,32.9,9,48.9c13.6,16.5,22.6,35.3,27.3,56.3C112,105.2,187.8,105.2,263.6,105.2z"/>
	<polygon class="st2" points="36,105.2 263.8,105.2 263.8,115.3 36,115.3 	"/>
	<g>
		<polygon class="st2" points="147.3,46.9 152.6,62.6 170.3,62.6 156,72.2 161.5,88 147.3,78.3 133,88 138.5,72.2 124.2,62.6 
			141.8,62.6 		"/>
		<polygon class="st2" points="196.3,51.2 200,61.8 211.9,61.8 202.3,68.2 205.9,78.8 196.3,72.2 186.6,78.8 190.4,68.2 180.6,61.8 
			192.6,61.8 		"/>
		<polygon class="st2" points="99.8,51.2 103.4,61.8 115.3,61.8 105.7,68.2 109.4,78.8 99.8,72.2 90.1,78.8 93.8,68.2 84.1,61.8 
			96.1,61.8 		"/>
		<polygon class="st2" points="61.8,51.2 65.5,61.8 77.5,61.8 67.8,68.2 71.6,78.8 61.8,72.2 52.2,78.8 55.9,68.2 46.3,61.8 
			58.2,61.8 		"/>
		<polygon class="st2" points="238,51.2 241.7,61.8 253.6,61.8 243.9,68.2 247.6,78.8 238,72.2 228.3,78.8 232,68.2 222.3,61.8 
			234.3,61.8 		"/>
	</g>
	<g>
		<polygon class="st2" points="69.3,227.1 66.9,240.8 80.5,246.3 65.5,249.3 63.1,263 56.3,251.1 41.2,254.1 52,243.8 45.1,232 
			58.6,237.4 		"/>
		<polygon class="st2" points="230.6,227.1 232.9,240.8 219.3,246.3 234.4,249.3 236.7,263 243.6,251.1 258.6,254.1 247.8,243.8 
			254.8,232 241.3,237.4 		"/>
		<polygon class="st2" points="120.4,243.3 121.1,257.1 135.6,259.8 121.6,265.6 122.4,279.5 113,269.2 99,275.1 107.2,262.9 
			97.8,252.6 112.2,255.4 		"/>
		<polygon class="st2" points="179.4,243.3 178.7,257.1 164.3,259.8 178.3,265.6 177.5,279.5 186.9,269.2 200.9,275.1 192.6,262.9 
			202.1,252.6 187.7,255.4 		"/>
	</g>
	<path class="st3" d="M68.5,182.3v27.8H54.6v-75.5c9.3-0.4,14.7-0.6,16.3-0.6c12.4,0,21.4,1.8,27.2,5.5c5.8,3.7,8.6,9.3,8.6,17.1
		c0,17.3-10.6,25.9-31.9,25.9C73.3,182.7,71.1,182.6,68.5,182.3z M68.5,146.4v24c2.4,0.2,4.3,0.4,5.6,0.4c6.4,0,11-1,13.9-3.1
		c2.9-2,4.4-5.4,4.4-9.9c0-7.8-6.5-11.7-19.6-11.7C71.2,146.1,69.8,146.2,68.5,146.4L68.5,146.4z M191.9,210.1h-13.5l-8.1-40.6
		l-15.8,41.7h-5l-15.8-41.7l-8.3,40.6H112l15.8-75.5h7.3l17,50.8l16.5-50.8h7.3L191.9,210.1z M200.9,210.1v-75.5h13.9v75.5H200.9z
		 M231.3,210.1v-75.5h13.9v75.5H231.3z"/>
</g>
</svg>
